<?xml version="1.0" encoding="iso-8859-1"?>
<!-- Generator: Adobe Illustrator 19.0.0, SVG Export Plug-In . SVG Version: 6.00 Build 0)  -->
<svg xmlns="http://www.w3.org/2000/svg" xmlns:xlink="http://www.w3.org/1999/xlink" version="1.1" id="Layer_1" x="0px" y="0px" viewBox="0 0 512 512" style="enable-background:new 0 0 512 512;" xml:space="preserve" width="512px" height="512px">
<g transform="translate(1 1)">
	<g>
		<g>
			<path d="M490.52,109.933h-47.787V75.8H323.267v34.133h-51.2v-5.12l14.507-14.507c3.413-3.413,3.413-8.533,0-11.947     s-8.533-3.413-11.947,0L255,97.987v11.947h-25.6V97.987L209.773,78.36c-3.413-3.413-8.533-3.413-11.947,0s-3.413,8.533,0,11.947     l14.507,14.507v5.12h-73.387l-33.849,59.733H101.4V152.6c0-9.387-7.68-17.067-17.067-17.067H41.667     c-9.387,0-17.067,7.68-17.067,17.067v17.067h-4.267C8.387,169.667-1,179.053-1,191v38.4V383v30.72     c0,16.213,12.8,29.013,29.013,29.013H252.44c0.853,0,1.707,0,2.56,0s0.853,0,1.707,0h225.28c16.213,0,29.013-12.8,29.013-29.013     V383V229.4v-42.667v-17.067v-39.253C511,119.32,501.613,109.933,490.52,109.933z M340.333,92.867h85.333v17.067h-85.333V92.867z      M41.667,152.6h42.667v17.067H41.667V152.6z M16.067,191c0-2.56,1.707-4.267,4.267-4.267H24.6h70.827h5.973h40.107     c-11.632,12.795-20.789,27.18-27.328,42.667H16.067V191z M101.4,357.4c-5.12,0-8.533,3.413-8.533,8.533H75.8     c0-5.12-3.413-8.533-8.533-8.533s-8.533,3.413-8.533,8.533H41.667c0-5.12-3.413-8.533-8.533-8.533     c-5.12,0-8.533,3.413-8.533,8.533h-8.533V357.4c5.12,0,8.533-3.413,8.533-8.533s-3.413-8.533-8.533-8.533v-17.067     c5.12,0,8.533-3.413,8.533-8.533s-3.413-8.533-8.533-8.533v-17.067c5.12,0,8.533-3.413,8.533-8.533     c0-5.12-3.413-8.533-8.533-8.533V255c5.12,0,8.533-3.413,8.533-8.533h17.067c0,5.12,3.413,8.533,8.533,8.533     s8.533-3.413,8.533-8.533H75.8c0,5.12,3.413,8.533,8.533,8.533c5.12,0,8.533-3.413,8.533-8.533h14.507     c-0.942,3.014-1.752,6.071-2.453,9.158c-1.047-0.407-2.229-0.625-3.52-0.625c-5.12,0-8.533,3.413-8.533,8.533     s3.413,8.533,8.533,8.533c0.291,0,0.574-0.014,0.853-0.036c-0.583,5.666-0.853,11.384-0.853,17.103     c-5.12,0-8.533,3.413-8.533,8.533s3.413,8.533,8.533,8.533c0.313,0,0.618-0.014,0.918-0.039     c0.644,6.042,1.619,12.016,2.956,17.887c-1.133-0.503-2.432-0.782-3.873-0.782c-5.12,0-8.533,3.413-8.533,8.533     s3.413,8.533,8.533,8.533c3.298,0,5.881-1.422,7.306-3.798c0.797,2.484,1.647,4.949,2.575,7.384     c-0.869,1.349-1.348,3.028-1.348,4.947c0,4.673,2.849,7.916,7.239,8.447c1.468,2.921,3.035,5.796,4.708,8.619h-11.947     C109.933,360.813,106.52,357.4,101.4,357.4z M28.013,425.667c-6.827,0-11.947-5.12-11.947-11.947V383h118.343     c5.678,7.348,12.041,14.214,19.044,20.48c9.387,8.533,20.48,16.213,31.573,22.187H28.013z M255.853,425.667h-3.413     c-32.427-0.853-64-12.8-88.747-34.987c-5.16-4.553-9.907-9.49-14.238-14.737l-4.535-6.597     c-15.909-22.272-25.136-47.513-26.316-74.334c-0.014-0.323-0.027-0.646-0.038-0.969c-0.06-1.632-0.099-3.267-0.099-4.91     c0-40.107,17.92-78.507,48.64-104.107C191.853,163.693,222.573,152.6,255,152.6c29.15,0,56.917,8.97,80.209,26.279l6.831,6.148     c35.84,29.867,53.76,75.093,47.787,121.173C383,367.64,332.653,417.987,270.36,424.813     C265.24,425.667,260.12,425.667,255.853,425.667z M405.053,322.629c1.054,0.414,2.244,0.637,3.547,0.637     c5.12,0,8.533-3.413,8.533-8.533s-3.413-8.533-8.533-8.533c-0.233,0-0.458,0.015-0.683,0.029     c0.596-5.712,0.867-11.42,0.825-17.101c5.039-0.064,8.391-3.456,8.391-8.527c0-5.12-3.413-8.533-8.533-8.533     c-0.288,0-0.569,0.014-0.845,0.036c-0.618-6.036-1.591-12.013-2.992-17.868c1.124,0.492,2.411,0.766,3.837,0.766     c5.12,0,8.533-3.413,8.533-8.533H434.2c0,5.12,3.413,8.533,8.533,8.533s8.533-3.413,8.533-8.533h17.067     c0,5.12,3.413,8.533,8.533,8.533s8.533-3.413,8.533-8.533h8.533V255c-5.12,0-8.533,3.413-8.533,8.533s3.413,8.533,8.533,8.533     v17.067c-5.12,0-8.533,3.413-8.533,8.533s3.413,8.533,8.533,8.533v17.067c-5.12,0-8.533,3.413-8.533,8.533     s3.413,8.533,8.533,8.533V357.4c-5.12,0-8.533,3.413-8.533,8.533h-17.067c0-5.12-3.413-8.533-8.533-8.533     c-5.12,0-8.533,3.413-8.533,8.533H434.2c0-5.12-3.413-8.533-8.533-8.533s-8.533,3.413-8.533,8.533H388.12     c7.832-13.216,13.406-27.559,16.745-42.538C404.926,323.139,404.993,322.886,405.053,322.629z M493.933,413.72     c0,6.827-5.12,11.947-11.947,11.947H324.973c20.073-10.423,37.514-25.047,51.242-42.667h117.718V413.72z M493.933,229.4h-97.585     c-6.598-15.564-15.691-30.026-27.002-42.667h22.187v10.24c0,8.533,6.827,15.36,15.36,15.36h54.613     c8.533,0,15.36-6.827,15.36-15.36v-10.24h17.067V229.4z M408.6,169.667V152.6h51.2v17.067v17.067v8.533h-51.2v-8.533V169.667z      M476.867,169.667v-18.773c0-8.533-6.827-15.36-15.36-15.36h-54.613c-8.533,0-15.36,6.827-15.36,15.36v18.773h-40.107     c-27.307-22.187-61.44-34.133-96.427-34.133s-69.12,11.947-96.427,34.133H124.44L149.187,127h174.08h119.467h47.787     c1.707,0,3.413,1.707,3.413,3.413v39.253H476.867z" fill="#FFFFFF"/>
			<path d="M255,178.2c-61.44,0-110.933,49.493-110.933,110.933S193.56,400.067,255,400.067s110.933-49.493,110.933-110.933     S316.44,178.2,255,178.2z M255,383c-52.053,0-93.867-41.813-93.867-93.867s41.813-93.867,93.867-93.867     s93.867,41.813,93.867,93.867S307.053,383,255,383z" fill="#FFFFFF"/>
			<path d="M320.707,308.76c-3.413-3.413-8.533-3.413-11.947,0l-34.133,34.133c-3.413,3.413-3.413,8.533,0,11.947     c1.707,1.707,3.413,2.56,5.973,2.56s4.267-0.853,5.973-2.56l34.133-34.133C324.12,317.293,324.12,312.173,320.707,308.76z" fill="#FFFFFF"/>
			<path d="M312.173,274.627c-3.413-3.413-8.533-3.413-11.947,0l-59.733,59.733c-3.413,3.413-3.413,8.533,0,11.947     c1.707,1.707,3.413,2.56,5.973,2.56s4.267-0.853,5.973-2.56l59.733-59.733C315.587,283.16,315.587,278.04,312.173,274.627z" fill="#FFFFFF"/>
			<path d="M229.4,84.333H255c5.12,0,8.533-3.413,8.533-8.533s-3.413-8.533-8.533-8.533h-25.6c-5.12,0-8.533,3.413-8.533,8.533     S224.28,84.333,229.4,84.333z" fill="#FFFFFF"/>
			<path d="M67.267,272.067c5.12,0,8.533-3.413,8.533-8.533S72.387,255,67.267,255s-8.533,3.413-8.533,8.533     S62.147,272.067,67.267,272.067z" fill="#FFFFFF"/>
			<path d="M33.133,272.067c5.12,0,8.533-3.413,8.533-8.533S38.253,255,33.133,255c-5.12,0-8.533,3.413-8.533,8.533     S28.013,272.067,33.133,272.067z" fill="#FFFFFF"/>
			<path d="M50.2,289.133c5.12,0,8.533-3.413,8.533-8.533c0-5.12-3.413-8.533-8.533-8.533s-8.533,3.413-8.533,8.533     C41.667,285.72,45.08,289.133,50.2,289.133z" fill="#FFFFFF"/>
			<path d="M84.333,289.133c5.12,0,8.533-3.413,8.533-8.533c0-5.12-3.413-8.533-8.533-8.533c-5.12,0-8.533,3.413-8.533,8.533     C75.8,285.72,79.213,289.133,84.333,289.133z" fill="#FFFFFF"/>
			<path d="M67.267,289.133c-5.12,0-8.533,3.413-8.533,8.533s3.413,8.533,8.533,8.533s8.533-3.413,8.533-8.533     S72.387,289.133,67.267,289.133z" fill="#FFFFFF"/>
			<path d="M33.133,306.2c5.12,0,8.533-3.413,8.533-8.533s-3.413-8.533-8.533-8.533c-5.12,0-8.533,3.413-8.533,8.533     S28.013,306.2,33.133,306.2z" fill="#FFFFFF"/>
			<path d="M50.2,306.2c-5.12,0-8.533,3.413-8.533,8.533s3.413,8.533,8.533,8.533s8.533-3.413,8.533-8.533S55.32,306.2,50.2,306.2z" fill="#FFFFFF"/>
			<path d="M84.333,306.2c-5.12,0-8.533,3.413-8.533,8.533s3.413,8.533,8.533,8.533c5.12,0,8.533-3.413,8.533-8.533     S89.453,306.2,84.333,306.2z" fill="#FFFFFF"/>
			<path d="M67.267,323.267c-5.12,0-8.533,3.413-8.533,8.533s3.413,8.533,8.533,8.533S75.8,336.92,75.8,331.8     S72.387,323.267,67.267,323.267z" fill="#FFFFFF"/>
			<path d="M33.133,323.267c-5.12,0-8.533,3.413-8.533,8.533s3.413,8.533,8.533,8.533c5.12,0,8.533-3.413,8.533-8.533     S38.253,323.267,33.133,323.267z" fill="#FFFFFF"/>
			<path d="M50.2,340.333c-5.12,0-8.533,3.413-8.533,8.533S45.08,357.4,50.2,357.4s8.533-3.413,8.533-8.533     S55.32,340.333,50.2,340.333z" fill="#FFFFFF"/>
			<path d="M84.333,340.333c-5.12,0-8.533,3.413-8.533,8.533s3.413,8.533,8.533,8.533c5.12,0,8.533-3.413,8.533-8.533     S89.453,340.333,84.333,340.333z" fill="#FFFFFF"/>
			<path d="M442.733,340.333c-5.12,0-8.533,3.413-8.533,8.533s3.413,8.533,8.533,8.533s8.533-3.413,8.533-8.533     S447.853,340.333,442.733,340.333z" fill="#FFFFFF"/>
			<path d="M408.6,357.4c5.12,0,8.533-3.413,8.533-8.533s-3.413-8.533-8.533-8.533s-8.533,3.413-8.533,8.533     S403.48,357.4,408.6,357.4z" fill="#FFFFFF"/>
			<path d="M476.867,340.333c-5.12,0-8.533,3.413-8.533,8.533s3.413,8.533,8.533,8.533s8.533-3.413,8.533-8.533     S481.987,340.333,476.867,340.333z" fill="#FFFFFF"/>
			<path d="M459.8,323.267c-5.12,0-8.533,3.413-8.533,8.533s3.413,8.533,8.533,8.533c5.12,0,8.533-3.413,8.533-8.533     S464.92,323.267,459.8,323.267z" fill="#FFFFFF"/>
			<path d="M425.667,340.333c5.12,0,8.533-3.413,8.533-8.533s-3.413-8.533-8.533-8.533s-8.533,3.413-8.533,8.533     S420.547,340.333,425.667,340.333z" fill="#FFFFFF"/>
			<path d="M442.733,323.267c5.12,0,8.533-3.413,8.533-8.533s-3.413-8.533-8.533-8.533s-8.533,3.413-8.533,8.533     S437.613,323.267,442.733,323.267z" fill="#FFFFFF"/>
			<path d="M476.867,306.2c-5.12,0-8.533,3.413-8.533,8.533s3.413,8.533,8.533,8.533s8.533-3.413,8.533-8.533     S481.987,306.2,476.867,306.2z" fill="#FFFFFF"/>
			<path d="M459.8,306.2c5.12,0,8.533-3.413,8.533-8.533s-3.413-8.533-8.533-8.533c-5.12,0-8.533,3.413-8.533,8.533     S454.68,306.2,459.8,306.2z" fill="#FFFFFF"/>
			<path d="M425.667,306.2c5.12,0,8.533-3.413,8.533-8.533s-3.413-8.533-8.533-8.533s-8.533,3.413-8.533,8.533     S420.547,306.2,425.667,306.2z" fill="#FFFFFF"/>
			<path d="M442.733,289.133c5.12,0,8.533-3.413,8.533-8.533c0-5.12-3.413-8.533-8.533-8.533s-8.533,3.413-8.533,8.533     C434.2,285.72,437.613,289.133,442.733,289.133z" fill="#FFFFFF"/>
			<path d="M476.867,289.133c5.12,0,8.533-3.413,8.533-8.533c0-5.12-3.413-8.533-8.533-8.533s-8.533,3.413-8.533,8.533     C468.333,285.72,471.747,289.133,476.867,289.133z" fill="#FFFFFF"/>
			<path d="M459.8,272.067c5.12,0,8.533-3.413,8.533-8.533S464.92,255,459.8,255c-5.12,0-8.533,3.413-8.533,8.533     S454.68,272.067,459.8,272.067z" fill="#FFFFFF"/>
			<path d="M425.667,272.067c5.12,0,8.533-3.413,8.533-8.533S430.787,255,425.667,255s-8.533,3.413-8.533,8.533     S420.547,272.067,425.667,272.067z" fill="#FFFFFF"/>
			<path d="M255,297.667c5.12,0,8.533-3.413,8.533-8.533S260.12,280.6,255,280.6s-8.533,3.413-8.533,8.533     S249.88,297.667,255,297.667z" fill="#FFFFFF"/>
		</g>
	</g>
</g>
<g>
</g>
<g>
</g>
<g>
</g>
<g>
</g>
<g>
</g>
<g>
</g>
<g>
</g>
<g>
</g>
<g>
</g>
<g>
</g>
<g>
</g>
<g>
</g>
<g>
</g>
<g>
</g>
<g>
</g>
</svg>
